<mxfile host="app.diagrams.net" modified="2022-02-07T07:25:05.730Z" agent="5.0 (X11)" etag="kXTIuWxyYV63UGKt_bJt" version="16.4.2" type="github">
  <diagram id="j9VpXQ_bf29RApUk1xqj" name="Page-1">
    <mxGraphModel dx="796" dy="481" grid="1" gridSize="10" guides="1" tooltips="1" connect="1" arrows="1" fold="1" page="1" pageScale="1" pageWidth="827" pageHeight="1169" math="0" shadow="0">
      <root>
        <mxCell id="0" />
        <mxCell id="1" parent="0" />
        <mxCell id="7o2BVAr2ZKmrwtrMXjSv-1" value="Recettes" style="swimlane;" vertex="1" parent="1">
          <mxGeometry x="310" y="150" width="200" height="200" as="geometry" />
        </mxCell>
      </root>
    </mxGraphModel>
  </diagram>
</mxfile>
